<?xml version="1.0" standalone="no"?>
<!DOCTYPE svg PUBLIC "-//W3C//DTD SVG 20010904//EN"
 "http://www.w3.org/TR/2001/REC-SVG-20010904/DTD/svg10.dtd">
<svg version="1.0" xmlns="http://www.w3.org/2000/svg"
 width="512.000000pt" height="512.000000pt" viewBox="0 0 512.000000 512.000000"
 preserveAspectRatio="xMidYMid meet">
<metadata>
Created by potrace 1.11, written by Peter Selinger 2001-2013
</metadata>
<g transform="translate(0.000000,512.000000) scale(0.100000,-0.100000)"
fill="#000000" stroke="none">
<path d="M2155 5100 c-546 -83 -1042 -335 -1435 -729 -358 -358 -590 -788
-695 -1284 -24 -114 -25 -129 -25 -522 0 -393 1 -408 25 -522 50 -238 115
-421 224 -637 262 -518 708 -941 1241 -1181 207 -93 464 -167 705 -202 167
-24 533 -24 700 0 573 84 1073 333 1475 736 430 431 683 974 740 1586 26 283
1 571 -75 870 -44 171 -91 298 -180 480 -125 254 -279 470 -485 676 -393 394
-898 649 -1445 730 -179 26 -594 26 -770 -1z m-406 -545 c162 -43 324 -175
429 -349 74 -122 148 -329 192 -539 19 -88 20 -143 20 -1412 l0 -1320 -88 0
c-79 0 -94 -3 -163 -36 -48 -23 -99 -59 -142 -99 l-67 -62 0 826 0 826 -280 0
-280 0 0 -727 0 -728 -93 0 c-87 0 -98 -3 -168 -37 -41 -20 -102 -60 -137 -88
l-62 -50 3 1437 3 1438 26 100 c103 390 222 596 425 733 138 94 257 121 382
87z m2066 -60 c211 -58 384 -205 487 -411 35 -71 43 -99 46 -156 4 -64 1 -75
-31 -141 -47 -94 -126 -188 -240 -283 l-92 -78 -7 90 c-22 264 -94 445 -212
535 -57 43 -104 59 -178 59 -173 0 -304 -140 -344 -370 -19 -110 -14 -259 12
-354 47 -178 131 -249 439 -376 171 -70 343 -154 407 -198 260 -179 388 -460
388 -854 0 -157 -11 -253 -46 -387 -51 -197 -120 -319 -254 -451 -124 -123
-239 -183 -400 -209 -133 -22 -339 -5 -463 38 -204 71 -369 223 -473 437 -79
162 -81 241 -11 389 44 90 104 169 214 278 l88 89 7 -69 c33 -316 101 -508
222 -628 84 -84 157 -119 259 -124 74 -3 83 -1 153 34 59 29 85 49 120 93 88
113 134 272 134 467 0 208 -51 355 -158 457 -65 63 -151 109 -405 219 -351
152 -490 264 -592 474 -133 273 -137 674 -11 987 40 97 87 169 166 248 110
111 225 175 370 206 87 18 323 12 405 -11z"/>
<path d="M1579 4066 c-92 -63 -158 -207 -194 -431 -11 -68 -15 -181 -15 -457
l0 -368 281 0 281 0 -5 408 c-4 399 -4 409 -30 516 -41 169 -95 273 -170 327
-50 37 -99 38 -148 5z"/>
</g>
</svg>
